<?xml version="1.0" encoding="UTF-8" standalone="no"?>
<!-- Created with Inkscape (http://www.inkscape.org/) -->

<svg
   width="49.823078mm"
   height="13.968157mm"
   viewBox="0 0 49.823078 13.968157"
   version="1.1"
   id="svg5"
   inkscape:version="1.1.1 (c3084ef, 2021-09-22)"
   sodipodi:docname="logo2.svg"
   xmlns:inkscape="http://www.inkscape.org/namespaces/inkscape"
   xmlns:sodipodi="http://sodipodi.sourceforge.net/DTD/sodipodi-0.dtd"
   xmlns="http://www.w3.org/2000/svg"
   xmlns:svg="http://www.w3.org/2000/svg">
  <sodipodi:namedview
     id="namedview7"
     pagecolor="#ffffff00"
     bordercolor="#666666"
     borderopacity="1.0"
     inkscape:pageshadow="2"
     inkscape:pageopacity="0.0"
     inkscape:pagecheckerboard="0"
     inkscape:document-units="mm"
     showgrid="false"
     inkscape:zoom="0.58492772"
     inkscape:cx="-36.756678"
     inkscape:cy="79.497002"
     inkscape:window-width="1280"
     inkscape:window-height="755"
     inkscape:window-x="0"
     inkscape:window-y="23"
     inkscape:window-maximized="0"
     inkscape:current-layer="layer1" />
  <defs
     id="defs2">
    <linearGradient
       id="linearGradient23876"
       inkscape:swatch="solid">
      <stop
         style="stop-color:#000000;stop-opacity:1;"
         offset="0"
         id="stop23874" />
    </linearGradient>
    <linearGradient
       id="linearGradient23838"
       inkscape:swatch="solid">
      <stop
         style="stop-color:#000000;stop-opacity:1;"
         offset="0"
         id="stop23836" />
    </linearGradient>
    <rect
       x="515.99469"
       y="627.21619"
       width="184.15358"
       height="56.522388"
       id="rect16260" />
    <rect
       x="495.93839"
       y="583.45691"
       width="196.9167"
       height="92.988449"
       id="rect13714" />
    <rect
       x="495.93839"
       y="583.45691"
       width="215.14973"
       height="196.9167"
       id="rect12586" />
    <linearGradient
       id="linearGradient5030"
       inkscape:swatch="solid">
      <stop
         style="stop-color:#000000;stop-opacity:1;"
         offset="0"
         id="stop5028" />
    </linearGradient>
    <linearGradient
       id="linearGradient5002"
       inkscape:swatch="solid">
      <stop
         style="stop-color:#000000;stop-opacity:1;"
         offset="0"
         id="stop5000" />
    </linearGradient>
    <rect
       x="80.940697"
       y="261.99225"
       width="366.36316"
       height="328.02283"
       id="rect1733" />
    <rect
       x="91.59079"
       y="236.43204"
       width="385.53333"
       height="225.78195"
       id="rect737" />
  </defs>
  <g
     inkscape:label="Layer 1"
     inkscape:groupmode="layer"
     id="layer1"
     transform="translate(-133.93401,-163.06041)">
    <text
       xml:space="preserve"
       transform="scale(0.26458333)"
       id="text735"
       style="font-size:24px;line-height:1.25;font-family:'GB18030 Bitmap';-inkscape-font-specification:'GB18030 Bitmap, Normal';font-variant-ligatures:none;white-space:pre;shape-inside:url(#rect737)" />
    <text
       xml:space="preserve"
       transform="scale(0.26458333)"
       id="text12584"
       style="font-size:24px;line-height:1.25;font-family:'GB18030 Bitmap';-inkscape-font-specification:'GB18030 Bitmap, Normal';font-variant-ligatures:none;white-space:pre;shape-inside:url(#rect12586)" />
    <g
       aria-label="&lt;/rc &gt;   "
       transform="matrix(0.66018156,0,0,0.64083284,-195.43985,-213.18446)"
       id="text13712"
       style="font-size:24px;line-height:1.25;font-family:'GB18030 Bitmap';-inkscape-font-specification:'GB18030 Bitmap, Normal';font-variant-ligatures:none;white-space:pre;shape-inside:url(#rect13714)">
      <path
        fill="white"
         d="m 512.4375,604.45062 -13.52344,-6.01172 v -1.45313 l 13.52344,-6.01172 v 2.10938 l -10.66406,4.6289 10.66406,4.62891 z"
         id="path39377" />
      <path
          fill='white'
         d="m 525.65625,587.11858 -8.40234,21.79688 h -2.02735 l 8.36719,-21.79688 z"
         id="path39379" />
      <path
        fill='white'
         d="m 536.83594,594.66546 h -0.11719 q -0.49219,-0.11719 -0.96094,-0.16406 -0.45703,-0.0586 -1.08984,-0.0586 -1.01953,0 -1.96875,0.45703 -0.94922,0.44532 -1.82813,1.16016 v 9.29297 h -2.20312 v -13.08984 h 2.20312 v 1.93359 q 1.3125,-1.05469 2.3086,-1.48828 1.00781,-0.44531 2.05078,-0.44531 0.57422,0 0.83203,0.0352 0.25781,0.0234 0.77344,0.10547 z"
         id="path39381" />
      <path
        fill='white'
         d="m 548.61328,604.53265 q -1.10156,0.52734 -2.09766,0.82031 -0.98437,0.29297 -2.09765,0.29297 -1.41797,0 -2.60156,-0.41016 -1.1836,-0.42187 -2.02735,-1.26562 -0.85547,-0.84375 -1.32422,-2.13282 -0.46875,-1.28906 -0.46875,-3.01171 0,-3.21094 1.75782,-5.03907 1.76953,-1.82812 4.66406,-1.82812 1.125,0 2.20312,0.3164 1.08985,0.31641 1.99219,0.77344 v 2.44922 h -0.11719 q -1.00781,-0.78516 -2.08593,-1.20703 -1.06641,-0.42188 -2.08594,-0.42188 -1.875,0 -2.96485,1.26563 -1.07812,1.25391 -1.07812,3.69141 0,2.36718 1.05469,3.64453 1.0664,1.26562 2.98828,1.26562 0.66797,0 1.35937,-0.17578 0.69141,-0.17578 1.24219,-0.45703 0.48047,-0.24609 0.90234,-0.51563 0.42188,-0.28125 0.66797,-0.48046 h 0.11719 z"
         id="path39383" />
      <path
        fill='white'
         d="m 574.38281,598.4389 -13.52344,6.01172 v -2.10938 l 10.66407,-4.62891 -10.66407,-4.6289 v -2.10938 l 13.52344,6.01172 z"
         id="path39385" />
    </g>
    <text
       xml:space="preserve"
       transform="scale(0.26458333)"
       id="text16258"
       style="font-size:24px;line-height:1.25;font-family:'GB18030 Bitmap';-inkscape-font-specification:'GB18030 Bitmap, Normal';font-variant-ligatures:none;white-space:pre;shape-inside:url(#rect16260)" />
  </g>
</svg>
